# xmcd CD database file
#
# Track frame offsets:
#	150
#	19417
#	47187
#	64022
#	100607
#	129272
#	162849
#	195129
#	218659
#	246904
#	265069
#	286734
#
# Disc length: 4135 seconds
#
# Revision: 0
# Processed by: cddbd v1.5.1PL0 Copyright (c) Steve Scherf et al.
# Submitted via: CDex 1.51
#
DISCID=9c10250c
DTITLE=Various Artist - Jazz Masterpieces Volume 2
DYEAR=1998
DGENRE=Jazz
TTITLE0=Lullaby Of Birdland
TTITLE1=Take The "A" Train
TTITLE2=Nature Boy
TTITLE3=My Funny Valentine
TTITLE4=Work Song
TTITLE5=Softly As In A Morning Su
TTITLE6=Softly As In A Morning Su
TTITLE7=African Flower
TTITLE8=Apple Core
TTITLE9=Have You Met Miss Jones?
TTITLE10=Sonny's Blues
TTITLE11=Off Minor
EXTD=YEAR: 1998
EXTT0=
EXTT1=
EXTT2=
EXTT3=
EXTT4=
EXTT5=
EXTT6=
EXTT7=
EXTT8=
EXTT9=
EXTT10=
EXTT11=
PLAYORDER=
